<svg width="72" height="72" viewBox="0 0 72 72" fill="none" xmlns="http://www.w3.org/2000/svg">
<g filter="url(#filter0_d_1444_37064)">
<path d="M11 16C11 11.5817 14.5817 8 19 8H59C63.4183 8 67 11.5817 67 16V56C67 60.4183 63.4183 64 59 64H19C14.5817 64 11 60.4183 11 56V16Z" fill="#4C6FFF"/>
</g>
<path d="M55.062 33.8508C54.7576 33.6058 54.4017 33.4328 54.021 33.3447C53.6403 33.2566 53.2446 33.2558 52.8636 33.3422C52.291 33.475 51.696 33.4774 51.1224 33.3492C50.5488 33.2211 50.0114 32.9656 49.5499 32.6017C49.0883 32.2379 48.7145 31.7749 48.456 31.2471C48.1975 30.7192 48.061 30.14 48.0565 29.5523C48.0522 28.8618 47.776 28.2008 47.2877 27.7125C46.7995 27.2243 46.1384 26.9481 45.4479 26.9438C44.8602 26.9393 44.281 26.8028 43.7532 26.5443C43.2254 26.2858 42.7624 25.9119 42.3986 25.4504C42.0347 24.9889 41.7792 24.4514 41.651 23.8779C41.5229 23.3043 41.5253 22.7092 41.6581 22.1367C41.741 21.7532 41.7374 21.3561 41.6475 20.9742C41.5577 20.5922 41.384 20.2351 41.1389 19.9287C40.8938 19.6224 40.5835 19.3744 40.2306 19.203C39.8777 19.0315 39.4911 18.9408 39.0987 18.9375H39.0003C36.7505 18.9396 34.5233 19.3862 32.4467 20.2516C30.37 21.117 28.4848 22.3842 26.8994 23.9804C25.3139 25.5765 24.0594 27.4702 23.2079 29.5526C22.3565 31.635 21.9248 33.8651 21.9378 36.1148C21.9661 40.6401 23.7908 44.9688 27.0107 48.1486C28.605 49.7231 30.4938 50.9682 32.5693 51.8127C34.6447 52.6572 36.8662 53.0847 39.1069 53.0707C41.3476 53.0567 43.5636 52.6015 45.6283 51.7311C47.6931 50.8607 49.5662 49.5921 51.1407 47.9978C52.7152 46.4035 53.9602 44.5147 54.8048 42.4392C55.6493 40.3637 56.0768 38.1422 56.0628 35.9016C56.0647 35.5058 55.9754 35.115 55.8019 34.7593C55.6283 34.4036 55.3751 34.0928 55.062 33.8508V33.8508ZM49.205 46.2211C43.6432 51.7664 34.5542 51.8156 28.9433 46.3523C26.8837 44.3502 25.4681 41.7793 24.8775 38.9683C24.287 36.1574 24.5483 33.2341 25.6281 30.5725C26.7079 27.9108 28.5571 25.6318 30.9392 24.0268C33.3213 22.4217 36.1279 21.5638 39.0003 21.5625H39.0987C38.8802 22.5175 38.8788 23.5093 39.0946 24.4649C39.3104 25.4205 39.7379 26.3155 40.3457 27.0839C40.9535 27.8522 41.7259 28.4744 42.6061 28.9044C43.4864 29.3345 44.4519 29.5615 45.4315 29.5688C45.4388 30.5484 45.6658 31.5139 46.0958 32.3941C46.5259 33.2744 47.1481 34.0468 47.9164 34.6546C48.6848 35.2623 49.5798 35.6899 50.5353 35.9057C51.4909 36.1215 52.4828 36.1201 53.4378 35.9016C53.4555 37.8169 53.0902 39.7165 52.3633 41.4887C51.6364 43.2609 50.5626 44.8699 49.205 46.2211ZM44.9886 41.8242C45.2632 42.0998 45.45 42.4506 45.5254 42.8323C45.6009 43.2141 45.5615 43.6096 45.4123 43.9689C45.2631 44.3282 45.0107 44.6353 44.6871 44.8513C44.3635 45.0674 43.9831 45.1827 43.594 45.1827C43.2049 45.1827 42.8246 45.0674 42.501 44.8513C42.1774 44.6353 41.925 44.3282 41.7758 43.9689C41.6266 43.6096 41.5872 43.2141 41.6626 42.8323C41.738 42.4506 41.9248 42.0998 42.1995 41.8242C42.3824 41.6407 42.5997 41.495 42.839 41.3957C43.0783 41.2963 43.3349 41.2452 43.594 41.2452C43.8531 41.2452 44.1097 41.2963 44.349 41.3957C44.5883 41.495 44.8057 41.6407 44.9886 41.8242V41.8242ZM34.4886 40.5117C34.7632 40.7873 34.95 41.1381 35.0255 41.5198C35.1009 41.9016 35.0615 42.2971 34.9123 42.6564C34.7631 43.0157 34.5107 43.3228 34.1871 43.5388C33.8635 43.7549 33.4831 43.8702 33.094 43.8702C32.7049 43.8702 32.3246 43.7549 32.001 43.5388C31.6774 43.3228 31.425 43.0157 31.2758 42.6564C31.1266 42.2971 31.0872 41.9016 31.1626 41.5198C31.238 41.1381 31.4248 40.7873 31.6995 40.5117C31.8824 40.3282 32.0997 40.1825 32.339 40.0832C32.5784 39.9838 32.8349 39.9327 33.094 39.9327C33.3531 39.9327 33.6097 39.9838 33.849 40.0832C34.0883 40.1825 34.3057 40.3282 34.4886 40.5117V40.5117ZM30.387 34.1133C30.1124 33.8377 29.9255 33.4869 29.8501 33.1052C29.7747 32.7234 29.8141 32.3279 29.9633 31.9686C30.1125 31.6093 30.3649 31.3022 30.6885 31.0862C31.0121 30.8701 31.3924 30.7548 31.7815 30.7548C32.1706 30.7548 32.551 30.8701 32.8746 31.0862C33.1982 31.3022 33.4506 31.6093 33.5998 31.9686C33.749 32.3279 33.7884 32.7234 33.713 33.1052C33.6375 33.4869 33.4507 33.8377 33.1761 34.1133C32.9932 34.2968 32.7758 34.4425 32.5365 34.5418C32.2972 34.6412 32.0406 34.6923 31.7815 34.6923C31.5224 34.6923 31.2659 34.6412 31.0265 34.5418C30.7872 34.4425 30.5699 34.2968 30.387 34.1133V34.1133ZM41.7073 36.7383C41.4317 37.0129 41.0809 37.1998 40.6992 37.2752C40.3175 37.3506 39.922 37.3112 39.5626 37.162C39.2033 37.0128 38.8962 36.7604 38.6802 36.4368C38.4642 36.1132 38.3489 35.7328 38.3489 35.3438C38.3489 34.9547 38.4642 34.5743 38.6802 34.2507C38.8962 33.9271 39.2033 33.6747 39.5626 33.5255C39.922 33.3763 40.3175 33.3369 40.6992 33.4123C41.0809 33.4877 41.4317 33.6746 41.7073 33.9492C41.8909 34.1321 42.0365 34.3495 42.1358 34.5888C42.2352 34.8281 42.2864 35.0846 42.2864 35.3438C42.2864 35.6029 42.2352 35.8594 42.1358 36.0987C42.0365 36.338 41.8909 36.5554 41.7073 36.7383Z" fill="white"/>
<defs>
<filter id="filter0_d_1444_37064" x="0" y="0" width="72" height="72" filterUnits="userSpaceOnUse" color-interpolation-filters="sRGB">
<feFlood flood-opacity="0" result="BackgroundImageFix"/>
<feColorMatrix in="SourceAlpha" type="matrix" values="0 0 0 0 0 0 0 0 0 0 0 0 0 0 0 0 0 0 127 0" result="hardAlpha"/>
<feOffset dx="-3"/>
<feGaussianBlur stdDeviation="4"/>
<feComposite in2="hardAlpha" operator="out"/>
<feColorMatrix type="matrix" values="0 0 0 0 0 0 0 0 0 0 0 0 0 0 0 0 0 0 0.2 0"/>
<feBlend mode="normal" in2="BackgroundImageFix" result="effect1_dropShadow_1444_37064"/>
<feBlend mode="normal" in="SourceGraphic" in2="effect1_dropShadow_1444_37064" result="shape"/>
</filter>
</defs>
</svg>
