<?xml version="1.0" encoding="UTF-8" standalone="no"?>
<svg
   xmlns:dc="http://purl.org/dc/elements/1.1/"
   xmlns:cc="http://creativecommons.org/ns#"
   xmlns:rdf="http://www.w3.org/1999/02/22-rdf-syntax-ns#"
   xmlns:svg="http://www.w3.org/2000/svg"
   xmlns="http://www.w3.org/2000/svg"
   xmlns:sodipodi="http://sodipodi.sourceforge.net/DTD/sodipodi-0.dtd"
   xmlns:inkscape="http://www.inkscape.org/namespaces/inkscape"
   inkscape:version="1.0 (4035a4fb49, 2020-05-01)"
   sodipodi:docname="cookie-svgrepo-com.svg"
   id="svg18"
   enable-background="new 0 0 512 512"
   viewBox="0 0 512 512"
   version="1.1">
  <metadata
     id="metadata24">
    <rdf:RDF>
      <cc:Work
         rdf:about="">
        <dc:format>image/svg+xml</dc:format>
        <dc:type
           rdf:resource="http://purl.org/dc/dcmitype/StillImage" />
      </cc:Work>
    </rdf:RDF>
  </metadata>
  <defs
     id="defs22" />
  <sodipodi:namedview
     inkscape:current-layer="svg18"
     inkscape:window-maximized="1"
     inkscape:window-y="-8"
     inkscape:window-x="-8"
     inkscape:cy="256"
     inkscape:cx="256"
     inkscape:zoom="1.6601562"
     showgrid="false"
     id="namedview20"
     inkscape:window-height="1017"
     inkscape:window-width="1920"
     inkscape:pageshadow="2"
     inkscape:pageopacity="0"
     guidetolerance="10"
     gridtolerance="10"
     objecttolerance="10"
     borderopacity="1"
     bordercolor="#666666"
     pagecolor="#ffffff" />
  <g
     id="g16">
    <g
       id="g14">
      <g
         id="g12">
        <path
           id="path2"
           d="m497.1,286.7c-3.4-4.6-8.5-7.6-14.1-8.3-73.7-9.1-129.2-71.4-129.2-145.1 0-24.7 6.4-49.2 18.5-70.8 2.8-4.9 3.3-10.8 1.6-16.2-1.7-5.4-5.7-9.8-10.8-12.2-33.1-15.3-68.4-23.1-105-23.1-136.2,0-247,109.9-247,245 5.32907e-15,135.1 110.8,245 247.1,245 118.2,0 220.2-83.5 242.6-198.5 1-5.5-0.3-11.2-3.7-15.8zm-239,173.5c-113.5,0-205.9-91.6-205.9-204.2 0-112.6 92.4-204.2 205.9-204.2 23.5,0 46.4,3.9 68.2,11.5-9,22.2-13.7,46-13.7,70 0,86.5 59.9,160.8 142.7,181.4-25.7,85.4-105.6,145.5-197.2,145.5z" />
        <ellipse
           id="ellipse4"
           ry="20.3"
           rx="20.4"
           cy="150.8"
           cx="194.5" />
        <ellipse
           id="ellipse6"
           ry="20.3"
           rx="20.4"
           cy="230.7"
           cx="264.4" />
        <ellipse
           id="ellipse8"
           ry="20.3"
           rx="20.4"
           cy="340.2"
           cx="293.8" />
        <ellipse
           id="ellipse10"
           ry="20.3"
           rx="20.4"
           cy="304.3"
           cx="146.7" />
      </g>
    </g>
  </g>
  <path
     id="path849"
     d="m 241.54353,500.19636 c -1.15953,-0.13195 -5.22541,-0.53257 -9.03529,-0.89027 -31.83828,-2.9892 -67.7639,-14.43792 -96.0753,-30.61712 C 126.337,462.91942 112.04403,453.21519 103.00235,445.99124 93.757675,438.60511 74.281918,419.39708 67.20427,410.68527 40.215806,377.46542 22.715165,339.93492 15.403737,299.59793 12.48847,283.51445 11.78572,275.07024 11.775406,256 11.765387,237.47505 12.428122,229.08764 15.107071,213.83529 23.4617,166.26898 46.364074,121.72196 80.413015,86.809805 101.69919,64.983974 122.41945,49.880195 149.08235,36.754118 c 25.84306,-12.722471 51.24593,-20.218756 81.01647,-23.907647 12.4004,-1.536541 43.61843,-1.536541 56.01883,0 26.88359,3.331166 52.67741,10.462332 74.46399,20.586913 8.64272,4.016416 12.90093,9.319037 13.82974,17.221763 0.50931,4.333359 -0.6055,8.200699 -4.50618,15.632238 -22.32105,42.525875 -21.59002,95.875805 1.88558,137.609085 14.94221,26.56322 36.34038,46.87017 63.7313,60.48129 13.75382,6.83455 25.90258,10.69399 42.81615,13.60192 9.33341,1.60467 12.79416,3.0725 16.58231,7.03314 7.25417,7.5845 7.33841,14.33981 0.47619,38.19022 -22.34777,77.67219 -82.6149,139.72239 -160.48849,165.23674 -15.15647,4.96584 -31.50239,8.57193 -48.18824,10.63085 -7.66636,0.94598 -39.73394,1.74506 -45.17647,1.12573 z m 43.82386,-41.45447 c 32.67764,-4.67991 61.24779,-15.47399 87.79026,-33.16803 12.10105,-8.06695 20.33922,-14.86737 31.35344,-25.8816 17.61121,-17.61122 28.95119,-33.57664 39.72743,-55.93179 4.83397,-10.02801 10.41603,-24.41757 10.67485,-27.51788 l 0.16428,-1.96787 -5.14833,-1.3813 c -20.92136,-5.61325 -46.79018,-18.76756 -65.32697,-33.21879 -20.97183,-16.34958 -39.785,-39.36136 -51.81473,-63.3784 -13.4416,-26.8358 -19.61088,-52.85234 -19.65206,-82.87505 -0.0303,-22.10437 3.01204,-40.143574 10.35595,-61.4037 1.68815,-4.887092 2.98235,-8.966204 2.87599,-9.064695 -0.39977,-0.370199 -12.47902,-3.912467 -18.50579,-5.426865 -17.54622,-4.408996 -33.04173,-5.982873 -54.71066,-5.556957 -21.1935,0.416572 -34.54838,2.411798 -54.0734,8.078594 -15.68794,4.553147 -35.80894,13.520061 -49.50889,22.063606 C 74.390956,128.99345 37.810109,215.50656 56.979675,301.08282 c 8.383939,37.42737 28.974391,74.03177 56.641665,100.69397 34.37328,33.12461 75.93917,52.49767 124.0069,57.79724 7.76433,0.85603 39.85751,0.29661 47.73915,-0.83214 z"
     style="fill:#0000ff;stroke-width:6.02391" />
  <path
     id="path851"
     d="m 288.11997,359.37633 c -12.83437,-4.19855 -18.24931,-19.11381 -10.94351,-30.14355 4.01489,-6.06138 10.3156,-9.10665 17.90021,-8.65155 5.64219,0.33855 9.54346,2.15923 13.25531,6.18611 3.9784,4.31605 5.18265,7.47385 5.17201,13.56207 -0.0101,5.7717 -1.1286,8.80152 -4.85748,13.15788 -4.45382,5.20327 -14.13357,7.98038 -20.52654,5.88904 z"
     style="fill:#0000ff;stroke-width:6.02391" />
  <path
     id="path853"
     d="m 287.62353,358.84058 c -3.73572,-1.53921 -5.64545,-2.88863 -8.35831,-5.90598 -8.33537,-9.27094 -5.82362,-23.79846 5.14702,-29.76944 4.20294,-2.28752 11.33188,-2.80857 16.24194,-1.18711 4.70404,1.55343 10.34119,7.38094 11.71664,12.11232 2.84919,9.80087 -1.33215,19.4673 -10.13313,23.42581 -4.33457,1.94961 -11.517,2.60051 -14.61416,1.3244 z"
     style="fill:#0000ff;stroke-width:6.02391" />
  <path
     id="path855"
     d="m 256.95295,249.08477 c -4.21335,-1.73212 -8.25153,-5.44752 -10.48782,-9.64948 -1.41176,-2.65266 -1.60287,-3.69405 -1.60287,-8.73411 0,-5.02414 0.19443,-6.09129 1.59346,-8.74605 4.82795,-9.16135 15.53761,-13.37968 24.99002,-9.84308 4.79521,1.79411 9.86141,6.83796 11.5852,11.53408 2.78335,7.58266 1.08093,15.18073 -4.69569,20.95735 -5.92842,5.92842 -13.83264,7.58498 -21.3823,4.48129 z"
     style="fill:#0000ff;stroke-width:6.02391" />
  <path
     id="path857"
     d="m 191.47031,170.42337 c -6.42387,-1.01174 -12.11298,-5.22453 -15.01246,-11.11673 -1.25048,-2.54118 -1.47432,-3.86485 -1.47432,-8.7184 0,-5.20493 0.16003,-6.01122 1.76976,-8.91697 2.20636,-3.98273 5.51714,-7.01541 9.90383,-9.07194 2.73883,-1.28399 4.25627,-1.58414 7.94688,-1.57188 3.91618,0.013 5.12715,0.29356 8.55824,1.98268 4.34798,2.14051 7.41454,5.23447 9.61607,9.702 1.99383,4.04607 1.95193,12.46486 -0.0811,16.29057 -2.24386,4.22245 -3.69081,5.90625 -6.96341,8.10318 -4.55277,3.05633 -9.143,4.12395 -14.2635,3.31749 z"
     style="fill:#0000ff;stroke-width:6.02391" />
  <path
     id="path859"
     d="m 139.3583,322.81164 c -4.46035,-1.71534 -8.2451,-5.30952 -10.5753,-10.04282 -1.70632,-3.46603 -1.97005,-4.61764 -1.95847,-8.55182 0.0163,-5.55033 1.86249,-10.05225 5.69312,-13.88288 3.95084,-3.95084 8.33136,-5.7214 14.15529,-5.7214 5.82393,0 10.20446,1.77056 14.1553,5.7214 8.34527,8.34527 7.58727,21.85917 -1.65362,29.48132 -5.06584,4.17844 -13.44702,5.44566 -19.81632,2.9962 z"
     style="fill:#4c6fff;stroke-width:6.02391;fill-opacity:1" />
  <path
     id="path861"
     d="m 287.62353,358.84058 c -6.226,-2.56527 -10.54079,-7.0788 -12.34202,-12.9105 -1.45747,-4.71874 -1.50342,-6.58768 -0.27002,-10.98233 1.7246,-6.14477 7.09739,-11.68552 12.89242,-13.29545 3.27812,-0.91069 9.72114,-0.70842 13.01467,0.40858 4.53418,1.53778 10.09054,7.34541 11.42746,11.94424 2.87521,9.89037 -1.27214,19.5367 -10.10835,23.51106 -4.33457,1.94961 -11.517,2.60051 -14.61416,1.3244 z"
     style="fill:#4c6fff;fill-opacity:1;stroke-width:6.02391" />
  <path
     id="path863"
     d="m 261.02588,249.95797 c -5.72507,-1.1474 -11.71768,-5.74307 -14.3334,-10.99216 -1.28744,-2.58354 -1.53483,-3.91569 -1.53483,-8.26463 0,-6.222 1.5327,-9.92793 5.69141,-13.7613 4.13804,-3.8143 7.13673,-5.07985 12.76945,-5.38913 4.29996,-0.2361 5.31622,-0.0826 8.20405,1.23954 4.607,2.10915 7.93838,5.34039 10.16136,9.85591 3.48881,7.08677 2.28903,14.66385 -3.34591,21.13085 -4.01555,4.6085 -11.80968,7.34382 -17.61213,6.18092 z"
     style="fill:#4c6fff;fill-opacity:1;stroke-width:6.02391" />
  <path
     id="path865"
     d="m 188.71708,169.34424 c -5.81297,-2.00856 -9.74048,-5.56072 -12.24218,-11.07218 -0.85772,-1.88965 -1.16374,-3.91017 -1.16374,-7.68382 0,-6.2484 1.09881,-9.01446 5.21406,-13.12555 4.01078,-4.00672 7.87099,-5.76773 13.26436,-6.05112 3.83257,-0.20137 4.80254,-0.0166 8.1603,1.55471 4.87603,2.28177 7.58828,4.68609 9.80946,8.69578 1.63577,2.95288 1.77478,3.67974 1.77478,9.27999 0,5.93181 -0.052,6.16077 -2.1888,9.63764 -3.59143,5.84375 -10.63004,9.918 -17.04524,9.86653 -1.34787,-0.0108 -3.86022,-0.50671 -5.583,-1.10198 z"
     style="fill:#4c6fff;fill-opacity:1;stroke-width:6.02391" />
  <path
     id="path867"
     d="m 231.96199,498.98845 c -31.33825,-3.41873 -64.26891,-13.69431 -91.71177,-28.61744 -8.74056,-4.75302 -22.14467,-13.5177 -32.12787,-21.00775 C 98.884867,442.43268 82.433205,427.13554 73.380503,417.05947 38.587567,378.33333 16.34502,326.54694 12.601728,275.55079 c -0.893042,-12.16623 -0.37191,-40.11214 0.926212,-49.66844 6.240424,-45.93973 23.302787,-85.63318 52.621543,-122.41742 8.1784,-10.260884 27.021362,-29.10302 37.455227,-37.453581 29.79386,-23.84501 65.62766,-40.887098 102.63685,-48.812748 19.97185,-4.277042 25.72031,-4.815939 51.5655,-4.834084 19.28914,-0.01354 24.50796,0.169279 31.02118,1.086707 25.637,3.611139 52.04778,11.043126 69.91432,19.673885 8.81161,4.256603 12.84764,8.076292 14.48498,13.708515 1.75354,6.031968 1.04564,9.465306 -4.2286,20.508967 -10.57613,22.145191 -14.69979,38.952369 -15.25183,62.163289 -0.3444,14.48081 0.49891,23.92959 3.22564,36.14118 11.06181,49.54011 48.22548,90.4097 96.90019,106.56297 5.18943,1.72217 14.05301,4.01061 20.82369,5.37636 13.19562,2.66176 16.43554,3.95825 20.25999,8.10729 4.29038,4.65451 4.69951,5.85487 4.66128,13.67573 -0.0365,7.47074 -0.77466,11.01221 -5.77506,27.70824 -15.74019,52.55547 -51.39534,100.1369 -98.69931,131.71323 -35.00065,23.36363 -78.49647,38.34529 -117.76,40.56116 -14.09946,0.79571 -36.43345,0.61694 -45.42154,-0.36359 z m 45.12036,-39.38722 c 29.79344,-1.94984 63.14362,-13.03169 90.35294,-30.02317 15.36158,-9.59289 26.10902,-18.34686 39.7553,-32.3814 14.41439,-14.82449 23.34303,-26.90889 32.60694,-44.1316 6.98568,-12.98722 15.58129,-33.90816 15.58129,-37.92346 0,-0.80068 -1.71853,-1.5414 -7.68,-3.31019 -28.34228,-8.4093 -57.57765,-25.59924 -78.04363,-45.88842 -30.91145,-30.64443 -49.87153,-68.76054 -55.00253,-110.57354 -1.20249,-9.79921 -1.35069,-32.8445 -0.2709,-42.1271 1.62986,-14.011437 3.93176,-24.210983 8.87943,-39.344005 1.82156,-5.571443 3.18285,-10.466267 3.02509,-10.877388 -0.595,-1.550535 -23.16414,-7.285295 -37.45804,-9.517991 -10.06218,-1.571704 -37.0518,-2.183478 -50.05045,-1.134495 -36.24232,2.924734 -72.40985,16.473143 -102.47992,38.389125 -41.705081,30.395924 -70.058329,74.277344 -80.497611,124.583584 -3.017094,14.53919 -3.698722,22.1448 -3.670899,40.96 0.02747,18.57474 0.543063,24.24861 3.661402,40.29172 7.88348,40.55863 31.300167,81.87037 62.110288,109.57504 33.84408,30.43283 70.06035,46.99884 116.71542,53.38788 5.09932,0.69831 32.04924,0.72713 42.46588,0.0454 z"
     style="fill:#4c6fff;fill-opacity:1;stroke-width:6.02391" />
</svg>
