<svg width="22" height="22" viewBox="0 0 22 22" fill="none" xmlns="http://www.w3.org/2000/svg">
<path d="M14.8719 6.91246L16.2275 6.49434C16.5159 6.40783 16.8475 6.52317 17.0062 6.7827L17.9002 8.19567C18.0733 8.46962 18.0156 8.83007 17.756 9.03193L16.7899 9.83934C16.6168 9.98352 16.5303 10.1998 16.5591 10.4305C16.6024 10.8054 16.6024 11.1802 16.5591 11.5551C16.5303 11.7714 16.6024 11.9876 16.7754 12.1318L17.7705 12.9681C18.0156 13.1843 18.0733 13.5304 17.9002 13.8043L17.0062 15.2173C16.8475 15.4768 16.5159 15.5922 16.2275 15.5057L14.9296 15.102C14.7277 15.0299 14.497 15.0731 14.3239 15.2029C13.9923 15.4336 13.6318 15.6354 13.2568 15.7796C13.0405 15.8661 12.8963 16.0391 12.8386 16.2554L12.5791 17.4809C12.5214 17.7837 12.233 18 11.9157 18H10.0843C9.76704 18 9.49305 17.7837 9.42095 17.4809L9.16138 16.2698C9.11811 16.0536 8.95949 15.8805 8.7576 15.794C8.38266 15.6354 8.02215 15.4336 7.69048 15.2029C7.51743 15.0875 7.30112 15.0443 7.08481 15.102L5.77254 15.5057C5.58507 15.5633 5.36876 15.5345 5.21014 15.4336C5.12361 15.3759 5.05151 15.3038 4.99383 15.2173L4.09975 13.8043C3.9267 13.5304 3.98439 13.1699 4.24396 12.9681L5.21014 12.1607C5.38318 12.0165 5.46971 11.8002 5.44086 11.5695C5.3976 11.1946 5.3976 10.8198 5.44086 10.4449C5.46971 10.2286 5.3976 10.0124 5.22456 9.86818L4.22954 9.03193C3.98439 8.81565 3.9267 8.46962 4.09975 8.19567L4.99383 6.7827C5.15245 6.52317 5.48413 6.40783 5.77254 6.49434L7.07039 6.89804C7.27228 6.97013 7.50301 6.92688 7.67606 6.79712C8.00773 6.56643 8.36824 6.36457 8.74318 6.22039C8.95949 6.13388 9.10369 5.96087 9.16138 5.74459L9.42095 4.51905C9.47863 4.21627 9.76704 4 10.0843 4H11.9157C12.233 4 12.507 4.21627 12.5791 4.51905L12.853 5.77343C12.8963 5.96087 13.0117 6.11946 13.1847 6.20597L14.3384 6.84037C14.497 6.92688 14.6989 6.9413 14.8719 6.89804V6.91246Z" stroke="#444443" stroke-width="1.1" stroke-linecap="round" stroke-linejoin="round"/>
<path d="M11 13C12.1046 13 13 12.1046 13 11C13 9.89543 12.1046 9 11 9C9.89543 9 9 9.89543 9 11C9 12.1046 9.89543 13 11 13Z" stroke="#444443" stroke-width="1.1" stroke-linecap="round" stroke-linejoin="round"/>
</svg>
