<svg width="22" height="22" viewBox="0 0 22 22" fill="none" xmlns="http://www.w3.org/2000/svg">
<path d="M13.9168 10.3395C14.4668 10.3395 14.9127 9.89364 14.9127 9.3436C14.9127 8.79356 14.4668 8.34766 13.9168 8.34766C13.3668 8.34766 12.9209 8.79356 12.9209 9.3436C12.9209 9.89364 13.3668 10.3395 13.9168 10.3395Z" fill="#444443"/>
<path d="M2.09758 7.28046C1.39636 8.45932 1 9.81095 1 11.254C1 13.3374 1.83339 15.2378 3.2155 16.691V20.9898H6.93497V19.0081C7.82928 19.2926 8.77437 19.4451 9.77031 19.4451C11.2337 19.4451 12.7073 19.0284 12.7073 19.0284V20.9898H16.4065V16.813C17.7175 15.4715 18.2053 14.1097 18.2053 14.1097H20.1565C20.624 14.1097 21 13.7032 21 13.2052V9.84142C21 9.34345 20.624 8.93697 20.1565 8.93697H18.2053L16.8231 6.15243V1C16.8231 1 13.9979 1.25405 13.2053 3.74388H13.185C12.1077 3.28656 11.0305 3.09349 9.77031 3.09349C9.18088 3.09349 8.61178 3.14429 8.063 3.24592" stroke="#444443" stroke-linecap="round" stroke-linejoin="round"/>
<path d="M2.08789 7.29053L6.84397 12.9511L9.27284 11.9551L11.8948 15.3596" stroke="#444443" stroke-linecap="round" stroke-linejoin="round"/>
<path d="M8.06353 3.22559L5.1875 10.9796" stroke="#444443" stroke-linecap="round" stroke-linejoin="round"/>
</svg>
