<svg width="22" height="22" viewBox="0 0 22 22" fill="none" xmlns="http://www.w3.org/2000/svg">
<path d="M13.4528 18.1317C16.1095 18.1317 18.2631 15.9781 18.2631 13.3215C18.2631 10.6649 16.1095 8.51123 13.4528 8.51123C10.7962 8.51123 8.64258 10.6649 8.64258 13.3215C8.64258 15.9781 10.7962 18.1317 13.4528 18.1317Z" stroke="#444443" stroke-linecap="round" stroke-linejoin="round"/>
<path d="M16.8535 16.7222L21.1315 21.0001" stroke="#444443" stroke-linecap="round" stroke-linejoin="round"/>
<path d="M10.3571 9.63494C9.58823 8.83651 8.53353 8.35352 7.36053 8.35352H5.3004C3.29941 8.35352 1.62371 9.78279 1.17028 11.7148C1.04214 12.2569 1.40685 12.7991 1.93914 12.8483C1.93914 12.8483 3.35856 13.3609 5.42854 13.4792" stroke="#444443" stroke-linecap="round" stroke-linejoin="round"/>
<path d="M6.59153 5.57369C7.85452 5.57369 8.87837 4.54983 8.87837 3.28684C8.87837 2.02385 7.85452 1 6.59153 1C5.32854 1 4.30469 2.02385 4.30469 3.28684C4.30469 4.54983 5.32854 5.57369 6.59153 5.57369Z" stroke="#444443" stroke-linecap="round" stroke-linejoin="round"/>
</svg>
