<svg width="22" height="22" viewBox="0 0 22 22" fill="none" xmlns="http://www.w3.org/2000/svg">
<path d="M20.7256 7.33487C17.8583 6.55195 17.0448 5.38266 15.6722 5.01662C14.4317 4.68109 12.9269 5.51484 10.995 4.98612C9.06316 4.4574 8.18872 2.98304 6.94826 2.63734C5.56544 2.26113 4.2843 2.86104 1.41699 2.07812" stroke="#444443" stroke-linecap="round" stroke-linejoin="round"/>
<path d="M10.9951 1V21" stroke="#444443" stroke-linecap="round" stroke-linejoin="round"/>
<path d="M4.74219 21H17.2486" stroke="#444443" stroke-linecap="round" stroke-linejoin="round"/>
<path d="M7.24302 9.94775H1L4.12151 2.68799L7.24302 9.94775Z" stroke="#444443" stroke-linecap="round" stroke-linejoin="round"/>
<path d="M1 9.94775V10.568C1 12.2965 2.40316 13.6895 4.12151 13.6895C5.83986 13.6895 7.24302 12.2864 7.24302 10.568V9.94775" stroke="#444443" stroke-linecap="round" stroke-linejoin="round"/>
<path d="M21.0003 13.7301H14.7471L17.8788 6.48047L21.0003 13.7301Z" stroke="#444443" stroke-linecap="round" stroke-linejoin="round"/>
<path d="M14.7471 13.73V14.3502C14.7471 16.0787 16.1502 17.4717 17.8686 17.4717C19.5869 17.4717 20.9901 16.0686 20.9901 14.3502V13.73" stroke="#444443" stroke-linecap="round" stroke-linejoin="round"/>
</svg>
