<svg width="27" height="27" viewBox="0 0 27 27" fill="none" xmlns="http://www.w3.org/2000/svg">
<g clip-path="url(#clip0_1652_50491)">
<path d="M12.8096 18.1902C11.8196 18.2302 10.8496 17.9102 10.0696 17.3102C8.54964 16.1402 7.86964 14.4102 8.10964 12.7102C8.16964 12.2602 8.78964 12.0302 9.16964 12.6102C9.16964 12.6102 9.16964 12.6102 9.16964 12.6202C8.86964 14.0802 9.44964 15.5902 10.7996 16.5602C11.3596 16.9602 12.0496 17.1702 12.7396 17.1502C15.8396 17.0902 17.3996 14.0502 16.2096 11.6802C15.8296 10.9202 15.2096 10.3102 14.4296 9.95024C14.1796 9.30024 14.7396 8.94024 15.1396 9.15024C15.9996 9.62024 16.6896 10.3302 17.1296 11.2102C18.6296 14.2002 16.6896 18.0402 12.8096 18.1802V18.1902Z" fill="white" stroke="white" stroke-width="0.2" stroke-miterlimit="10"/>
<path d="M7.12977 19.6798C7.00977 19.6798 6.88977 19.6298 6.78977 19.5398C5.15977 17.8498 4.25977 15.6298 4.25977 13.2698C4.25977 8.29977 8.29977 4.25977 13.2698 4.25977C15.8098 4.25977 18.1698 5.29977 19.8998 7.16977C19.9298 7.78977 19.3498 7.94977 19.0698 7.65977C17.5298 6.06977 15.4698 5.19977 13.2698 5.19977C8.81977 5.19977 5.18977 8.81977 5.18977 13.2798C5.18977 15.4598 6.04977 17.5198 7.61977 19.0498C7.63977 19.4798 7.37977 19.6898 7.12977 19.6898V19.6798Z" fill="white" stroke="white" stroke-width="0.2" stroke-miterlimit="10"/>
<path d="M0.0996094 13.2702C0.0996094 11.6502 0.389609 10.0702 0.959609 8.5802C1.02961 8.4002 1.22961 8.31021 1.40961 8.38021C1.58961 8.45021 1.67961 8.6502 1.60961 8.8302C1.06961 10.2502 0.789609 11.7402 0.789609 13.2702C0.789609 20.1402 6.37961 25.7302 13.2496 25.7302C13.5596 25.7302 13.7696 26.1202 13.4196 26.4302C6.09961 26.5302 0.0996094 20.5902 0.0996094 13.2702Z" fill="white" stroke="white" stroke-width="0.2" stroke-miterlimit="10"/>
<path d="M25.3196 17.9899C25.3196 17.9899 25.2396 17.9899 25.1996 17.9699C25.0196 17.8999 24.9196 17.6999 24.9896 17.5199C26.4496 13.4799 25.7696 9.00986 23.0096 5.46986C22.2096 4.44986 21.2496 3.56986 20.1596 2.86986C18.0296 1.50986 15.6696 0.809863 13.2496 0.809863C12.8996 0.499863 13.1196 0.109863 13.4196 0.109863C14.8896 0.129863 16.3496 0.389863 17.7496 0.899863C21.0596 2.09986 23.6996 4.50986 25.1896 7.69986C26.6796 10.8899 26.8396 14.4599 25.6396 17.7699C25.5896 17.9099 25.4496 17.9999 25.3096 17.9999L25.3196 17.9899Z" fill="white" stroke="white" stroke-width="0.2" stroke-miterlimit="10"/>
<path fill-rule="evenodd" clip-rule="evenodd" d="M13.9 14.66C14.02 14.61 14.14 14.47 14.11 14.3C13.99 13.69 13.53 13.23 12.99 13.23H12.43C11.89 13.23 11.43 13.68 11.31 14.3C11.28 14.47 11.38 14.61 11.52 14.66C11.66 14.71 12.01 14.87 12.69 14.87C13.37 14.87 13.78 14.71 13.9 14.66Z" fill="white"/>
<path d="M12.7493 12.8301C13.1469 12.8301 13.4693 12.5078 13.4693 12.1101C13.4693 11.7125 13.1469 11.3901 12.7493 11.3901C12.3517 11.3901 12.0293 11.7125 12.0293 12.1101C12.0293 12.5078 12.3517 12.8301 12.7493 12.8301Z" fill="white"/>
</g>
<defs>
<clipPath id="clip0_1652_50491">
<rect width="26.54" height="26.54" fill="white"/>
</clipPath>
</defs>
</svg>
