<svg width="27" height="27" viewBox="0 0 27 27" fill="none" xmlns="http://www.w3.org/2000/svg">
<g clip-path="url(#clip0_1821_82824)">
<path d="M13.2299 18.219C12.2399 18.259 11.2699 17.939 10.4899 17.339C8.96992 16.169 8.28992 14.439 8.52992 12.739C8.58992 12.289 9.20992 12.059 9.58992 12.639C9.58992 12.639 9.58992 12.639 9.58992 12.649C9.28992 14.109 9.86992 15.619 11.2199 16.589C11.7799 16.989 12.4699 17.199 13.1599 17.179C16.2599 17.119 17.8199 14.079 16.6299 11.709C16.2499 10.949 15.6299 10.339 14.8499 9.97905C14.5999 9.32905 15.1599 8.96905 15.5599 9.17905C16.4199 9.64905 17.1099 10.359 17.5499 11.239C19.0499 14.229 17.1099 18.069 13.2299 18.209V18.219Z" fill="#444443"/>
<path d="M7.54993 19.7091C7.42993 19.7091 7.30993 19.6591 7.20993 19.5691C5.57993 17.8791 4.67993 15.6591 4.67993 13.2991C4.67993 8.32906 8.71993 4.28906 13.6899 4.28906C16.2299 4.28906 18.5899 5.32906 20.3199 7.19906C20.3499 7.81906 19.7699 7.97906 19.4899 7.68906C17.9499 6.09906 15.8899 5.22906 13.6899 5.22906C9.23993 5.22906 5.60993 8.84906 5.60993 13.3091C5.60993 15.4891 6.46993 17.5491 8.03993 19.0791C8.05993 19.5091 7.79993 19.7191 7.54993 19.7191V19.7091Z" fill="#444443"/>
<path d="M0.519897 13.2995C0.519897 11.6795 0.809897 10.0995 1.3799 8.6095C1.4499 8.4295 1.6499 8.3395 1.8299 8.4095C2.0099 8.4795 2.0999 8.6795 2.0299 8.8595C1.4899 10.2795 1.2099 11.7695 1.2099 13.2995C1.2099 20.1695 6.7999 25.7595 13.6699 25.7595C13.9799 25.7595 14.1899 26.1495 13.8399 26.4595C6.5199 26.5595 0.519897 20.6195 0.519897 13.2995Z" fill="#444443"/>
<path d="M25.7399 18.0196C25.7399 18.0196 25.6599 18.0196 25.6199 17.9996C25.4399 17.9296 25.3399 17.7296 25.4099 17.5496C26.8699 13.5096 26.1899 9.03965 23.4299 5.49965C22.6299 4.47965 21.6699 3.59965 20.5799 2.89965C18.4499 1.53965 16.0899 0.839648 13.6699 0.839648C13.3199 0.529648 13.5399 0.139648 13.8399 0.139648C15.3099 0.159648 16.7699 0.419648 18.1699 0.929648C21.4799 2.12965 24.1199 4.53965 25.6099 7.72965C27.0999 10.9196 27.2599 14.4896 26.0599 17.7996C26.0099 17.9396 25.8699 18.0296 25.7299 18.0296L25.7399 18.0196Z" fill="#444443"/>
<path fill-rule="evenodd" clip-rule="evenodd" d="M14.3199 14.6898C14.4399 14.6398 14.5599 14.4998 14.5299 14.3298C14.4099 13.7198 13.9499 13.2598 13.4099 13.2598H12.8499C12.3099 13.2598 11.8499 13.7098 11.7299 14.3298C11.6999 14.4998 11.7999 14.6398 11.9399 14.6898C12.0799 14.7398 12.4299 14.8998 13.1099 14.8998C13.7899 14.8998 14.1999 14.7398 14.3199 14.6898Z" fill="#444443"/>
<path d="M13.17 12.8589C13.5676 12.8589 13.89 12.5366 13.89 12.1389C13.89 11.7413 13.5676 11.4189 13.17 11.4189C12.7723 11.4189 12.45 11.7413 12.45 12.1389C12.45 12.5366 12.7723 12.8589 13.17 12.8589Z" fill="#444443"/>
</g>
<defs>
<clipPath id="clip0_1821_82824">
<rect width="26.54" height="26.54" fill="white" transform="translate(0.419922 0.0292969)"/>
</clipPath>
</defs>
</svg>
