<svg width="47" height="32" viewBox="0 0 47 32" fill="none" xmlns="http://www.w3.org/2000/svg">
<g opacity="0.96">
<rect width="47" height="32" rx="16" fill="#355AF1"/>
<path d="M34 17C34.5523 17 35 16.5523 35 16C35 15.4477 34.5523 15 34 15V17ZM14.2929 15.2929C13.9024 15.6834 13.9024 16.3166 14.2929 16.7071L20.6569 23.0711C21.0474 23.4616 21.6805 23.4616 22.0711 23.0711C22.4616 22.6805 22.4616 22.0474 22.0711 21.6569L16.4142 16L22.0711 10.3431C22.4616 9.95262 22.4616 9.31946 22.0711 8.92893C21.6805 8.53841 21.0474 8.53841 20.6569 8.92893L14.2929 15.2929ZM34 15L15 15V17L34 17V15Z" fill="white"/>
</g>
</svg>
