<svg width="22" height="22" viewBox="0 0 22 22" fill="none" xmlns="http://www.w3.org/2000/svg">
<path d="M2.80983 4.75187H6.58209V12.2557H2.80983C1.81339 12.2557 1 11.4423 1 10.4458V6.55156C1 5.55512 1.81339 4.7417 2.80983 4.7417V4.75187Z" stroke="#444443" stroke-linecap="round" stroke-linejoin="round"/>
<path d="M6.58203 4.75225C6.58203 4.75225 11.8082 5.13862 14.1265 1.55957" stroke="#444443" stroke-linecap="round" stroke-linejoin="round"/>
<path d="M6.58203 12.2455C6.58203 12.2455 11.8388 11.9202 14.157 15.489" stroke="#444443" stroke-linecap="round" stroke-linejoin="round"/>
<path d="M17.0757 1H14.8286C14.413 1 14.0762 1.33687 14.0762 1.75242V15.245C14.0762 15.6606 14.413 15.9975 14.8286 15.9975H17.0757C17.4912 15.9975 17.8281 15.6606 17.8281 15.245V1.75242C17.8281 1.33687 17.4912 1 17.0757 1Z" stroke="#444443" stroke-linecap="round" stroke-linejoin="round"/>
<path d="M3.72477 12.2456H6.104C6.36836 12.2456 6.58191 12.4591 6.58191 12.7235V19.6376C6.58191 20.39 5.97182 21.0001 5.2194 21.0001H4.58901C3.83659 21.0001 3.22656 20.39 3.22656 19.6376V12.7235C3.22656 12.4591 3.44006 12.2456 3.70442 12.2456H3.72477Z" stroke="#444443" stroke-linecap="round" stroke-linejoin="round"/>
<path d="M18.0312 5.51465C19.6784 5.51465 21.0104 6.84663 21.0104 8.4938C21.0104 10.141 19.6784 11.473 18.0312 11.473" stroke="#444443" stroke-linecap="round" stroke-linejoin="round"/>
</svg>
