<svg width="22" height="22" viewBox="0 0 22 22" fill="none" xmlns="http://www.w3.org/2000/svg">
<path d="M20.9995 4.21143L17.7575 1L14.5156 4.20127" stroke="#444443" stroke-linecap="round" stroke-linejoin="round"/>
<path d="M17.7783 1.12207V9.99416" stroke="#444443" stroke-linecap="round" stroke-linejoin="round"/>
<path d="M17.6263 14.0997C16.925 18.0225 13.5002 21.0002 9.37411 21.0002C4.75005 21.0002 1 17.2501 1 12.6261C1 8.00201 4.75005 4.25195 9.37411 4.25195" stroke="#444443" stroke-linecap="round" stroke-linejoin="round"/>
<path d="M14.1711 14.3335C13.3276 16.2136 11.5288 17.5144 9.4454 17.5144C7.36204 17.5144 5.56324 16.2136 4.71973 14.3335" stroke="#444443" stroke-linecap="round" stroke-linejoin="round"/>
<path d="M6.60971 11.7522C7.24956 11.7522 7.76828 11.2335 7.76828 10.5936C7.76828 9.95376 7.24956 9.43506 6.60971 9.43506C5.96986 9.43506 5.45117 9.95376 5.45117 10.5936C5.45117 11.2335 5.96986 11.7522 6.60971 11.7522Z" fill="#444443"/>
<path d="M12.1585 11.7522C12.7984 11.7522 13.3171 11.2335 13.3171 10.5936C13.3171 9.95376 12.7984 9.43506 12.1585 9.43506C11.5187 9.43506 11 9.95376 11 10.5936C11 11.2335 11.5187 11.7522 12.1585 11.7522Z" fill="#444443"/>
</svg>
