<svg width="22" height="22" viewBox="0 0 22 22" fill="none" xmlns="http://www.w3.org/2000/svg">
<path fill-rule="evenodd" clip-rule="evenodd" d="M20.1904 20.3326C20.7393 20.2716 21.1052 19.7329 20.9731 19.1739C20.5157 17.2122 18.8081 15.7485 16.7752 15.7485H14.6712C12.6384 15.7485 10.9308 17.2122 10.4734 19.1739C10.3412 19.7228 10.7072 20.2716 11.256 20.3326C11.256 20.3326 13.0958 21.0035 15.6368 21.0035C18.1779 21.0035 20.2006 20.3326 20.2006 20.3326H20.1904Z" stroke="#444443" stroke-linecap="round" stroke-linejoin="round"/>
<path d="M15.7183 12.9331C17.0038 12.9331 18.0459 11.891 18.0459 10.6055C18.0459 9.31994 17.0038 8.27783 15.7183 8.27783C14.4327 8.27783 13.3906 9.31994 13.3906 10.6055C13.3906 11.891 14.4327 12.9331 15.7183 12.9331Z" stroke="#444443" stroke-linecap="round" stroke-linejoin="round"/>
<path d="M14.1221 4.59815V2.77875H5.91954V1.83348C5.91954 1.37609 5.54345 1 5.08606 1H1.83348C1.37609 1 1 1.37609 1 1.83348V12.506L3.66307 6.19395H10.6459" stroke="#444443" stroke-linecap="round" stroke-linejoin="round"/>
<path d="M1 12.4961H9.40588" stroke="#444443" stroke-linecap="round" stroke-linejoin="round"/>
</svg>
