<svg width="22" height="22" viewBox="0 0 22 22" fill="none" xmlns="http://www.w3.org/2000/svg">
<path d="M17.248 1.01025V8.5141" stroke="#444443" stroke-linecap="round" stroke-linejoin="round"/>
<path d="M20.9999 4.76221H13.4961" stroke="#444443" stroke-linecap="round" stroke-linejoin="round"/>
<path d="M3.50195 21.0206H13.5071V17.6754C10.4161 15.7944 6.59297 15.7944 3.50195 17.6754V21.0206Z" stroke="#444443" stroke-linecap="round" stroke-linejoin="round"/>
<path d="M1 1.01025H9.45962" stroke="#444443" stroke-linecap="round" stroke-linejoin="round"/>
<path d="M1 21.0205H15.9975" stroke="#444443" stroke-linecap="round" stroke-linejoin="round"/>
<path d="M3.50195 4.78223H9.46027" stroke="#444443" stroke-linecap="round" stroke-linejoin="round"/>
<path d="M10.7007 9.39861L8.5045 11.0153L4.51873 8.07679C3.87816 7.60907 3.50195 6.85666 3.50195 6.06357V1H9.47045" stroke="#444443" stroke-linecap="round" stroke-linejoin="round"/>
<path d="M4.51873 13.9435L8.5045 11.0151L12.5004 13.9536C13.1308 14.4214 13.5071 15.1636 13.5071 15.9465V21.0101H3.50195V15.9567C3.50195 15.1636 3.87816 14.4112 4.51873 13.9435Z" stroke="#444443" stroke-linecap="round" stroke-linejoin="round"/>
</svg>
