<svg width="22" height="22" viewBox="0 0 22 22" fill="none" xmlns="http://www.w3.org/2000/svg">
<path d="M16.1922 20.9998C16.9499 20.9998 17.5642 20.3855 17.5642 19.6278C17.5642 18.8701 16.9499 18.2559 16.1922 18.2559C15.4345 18.2559 14.8203 18.8701 14.8203 19.6278C14.8203 20.3855 15.4345 20.9998 16.1922 20.9998Z" stroke="#444443" stroke-linecap="round" stroke-linejoin="round"/>
<path d="M9.49497 20.9998C10.2527 20.9998 10.8669 20.3855 10.8669 19.6278C10.8669 18.8701 10.2527 18.2559 9.49497 18.2559C8.73727 18.2559 8.12305 18.8701 8.12305 19.6278C8.12305 20.3855 8.73727 20.9998 9.49497 20.9998Z" stroke="#444443" stroke-linecap="round" stroke-linejoin="round"/>
<path d="M1 3.38818L4.41462 3.88615L7.47357 13.2053H18.754L21 6.2642H5.53248" stroke="#444443" stroke-linecap="round" stroke-linejoin="round"/>
<path d="M7.37185 13.2764C6.39624 13.9674 6.43692 15.3699 7.46334 16.0203H18.6219" stroke="#444443" stroke-linecap="round" stroke-linejoin="round"/>
<path d="M8.57129 6.6709L10.3497 12.9209" stroke="#444443" stroke-linecap="round" stroke-linejoin="round"/>
<path d="M17.5441 6.6709L15.7656 12.9209" stroke="#444443" stroke-linecap="round" stroke-linejoin="round"/>
<path d="M13.1748 6.6709V13.2055" stroke="#444443" stroke-linecap="round" stroke-linejoin="round"/>
<path d="M21.0007 6.20335C21.0007 3.33749 18.8056 1.01025 16.0921 1.01025C13.3787 1.01025 11.1836 3.33749 11.1836 6.20335" stroke="#444443" stroke-linecap="round" stroke-linejoin="round"/>
<path d="M15.7561 1H8.46951C8.12398 1 7.84961 1.28455 7.84961 1.61992V6.19309" stroke="#444443" stroke-linecap="round" stroke-linejoin="round"/>
</svg>
