<svg width="22" height="22" viewBox="0 0 22 22" fill="none" xmlns="http://www.w3.org/2000/svg">
<path d="M10.7224 5.89941H3.57148C2.70651 5.89941 2 6.59931 2 7.47089V15.8235C2 16.6884 2.6999 17.3949 3.57148 17.3949H15.7537C16.6187 17.3949 17.3252 16.6884 17.3252 15.8235V16.1668" stroke="#444443" stroke-linecap="round" stroke-linejoin="round"/>
<path d="M9.66602 17.395V20.2342" stroke="#444443" stroke-linecap="round" stroke-linejoin="round"/>
<path d="M6.79395 21H12.5384" stroke="#444443" stroke-linecap="round" stroke-linejoin="round"/>
<path fill-rule="evenodd" clip-rule="evenodd" d="M20.3628 13.1293C20.9108 13.0699 21.2806 12.5218 21.1485 11.9672C20.6863 9.98634 18.9696 8.52051 16.9161 8.52051H14.8032C12.7563 8.52051 11.033 9.99294 10.5708 11.9672C10.4387 12.5218 10.8085 13.0765 11.3565 13.1293C11.3565 13.1293 13.2119 13.8028 15.7672 13.8028C18.3225 13.8028 20.3562 13.1293 20.3562 13.1293H20.3628Z" stroke="#444443" stroke-linecap="round" stroke-linejoin="round"/>
<path d="M15.8597 5.67481C17.1542 5.67481 18.2037 4.62831 18.2037 3.3374C18.2037 2.04649 17.1542 1 15.8597 1C14.5651 1 13.5156 2.04649 13.5156 3.3374C13.5156 4.62831 14.5651 5.67481 15.8597 5.67481Z" stroke="#444443" stroke-linecap="round" stroke-linejoin="round"/>
</svg>
