<svg width="24" height="23" viewBox="0 0 24 23" fill="none" xmlns="http://www.w3.org/2000/svg">
<path d="M2.58276 3.54161H4.95691V8.85009H2.58276C1.71135 8.85009 1 8.13873 1 7.26733V5.11548C1 4.24407 1.71135 3.53271 2.58276 3.53271V3.54161Z" stroke="#444443" stroke-width="0.9" stroke-linecap="round" stroke-linejoin="round"/>
<path d="M4.94824 3.54126C4.94824 3.54126 7.98039 3.81691 9.32307 1.28271" stroke="#444443" stroke-width="0.9" stroke-linecap="round" stroke-linejoin="round"/>
<path d="M4.94824 8.85023C4.94824 8.85023 7.99817 8.61904 9.34086 11.1532" stroke="#444443" stroke-width="0.9" stroke-linecap="round" stroke-linejoin="round"/>
<path d="M11.3591 0.882812H10.0164C9.653 0.882812 9.3584 1.17741 9.3584 1.54082V10.8507C9.3584 11.2141 9.653 11.5087 10.0164 11.5087H11.3591C11.7225 11.5087 12.0171 11.2141 12.0171 10.8507V1.54082C12.0171 1.17741 11.7225 0.882812 11.3591 0.882812Z" stroke="#444443" stroke-width="0.9" stroke-linecap="round" stroke-linejoin="round"/>
<path d="M3.00093 8.8501H4.53034C4.76153 8.8501 4.94826 9.03683 4.94826 9.26802V13.8651C4.94826 14.5143 4.41475 15.0478 3.76563 15.0478C3.11652 15.0478 2.58301 14.5143 2.58301 13.8651V9.26802C2.58301 9.03683 2.76974 8.8501 3.00093 8.8501Z" stroke="#444443" stroke-width="0.9" stroke-linecap="round" stroke-linejoin="round"/>
<path d="M12.168 4.08398C13.1816 4.08398 13.9997 5.02653 13.9997 6.20026C13.9997 7.374 13.1816 8.31654 12.168 8.31654" stroke="#444443" stroke-width="0.9" stroke-linecap="round" stroke-linejoin="round"/>
<path fill-rule="evenodd" clip-rule="evenodd" d="M22.5866 20.8601C23.1266 20.8001 23.4866 20.2701 23.3566 19.7201C22.9066 17.7901 21.2266 16.3501 19.2266 16.3501H17.1566C15.1566 16.3501 13.4766 17.7901 13.0266 19.7201C12.8966 20.2601 13.2566 20.8001 13.7966 20.8601C13.7966 20.8601 15.6066 21.5201 18.1066 21.5201C20.6066 21.5201 22.5966 20.8601 22.5966 20.8601H22.5866Z" stroke="#444443" stroke-linecap="round" stroke-linejoin="round"/>
<path d="M18.1865 13.58C19.4512 13.58 20.4765 12.5547 20.4765 11.29C20.4765 10.0253 19.4512 9 18.1865 9C16.9218 9 15.8965 10.0253 15.8965 11.29C15.8965 12.5547 16.9218 13.58 18.1865 13.58Z" stroke="#444443" stroke-linecap="round" stroke-linejoin="round"/>
</svg>
