<svg width="22" height="22" viewBox="0 0 22 22" fill="none" xmlns="http://www.w3.org/2000/svg">
<path d="M1.31589 11.6593L5.00537 18.0525C5.65587 19.1807 7.09919 19.5669 8.21724 18.9164L18.9809 12.7062C19.4383 12.442 19.7636 11.9947 19.8652 11.4764L20.9629 6.07929C21.1458 5.17469 20.6376 4.27009 19.7635 3.96517L14.458 2.10516C13.9498 1.92221 13.3907 1.98319 12.9232 2.24746L2.17981 8.4475C1.0516 9.098 0.665397 10.5413 1.31589 11.6593Z" stroke="#444443" stroke-linecap="round" stroke-linejoin="round"/>
<path d="M16.4701 8.69117C17.3009 8.69117 17.9743 8.01768 17.9743 7.18689C17.9743 6.35611 17.3009 5.68262 16.4701 5.68262C15.6393 5.68262 14.9658 6.35611 14.9658 7.18689C14.9658 8.01768 15.6393 8.69117 16.4701 8.69117Z" stroke="#444443" stroke-linecap="round" stroke-linejoin="round"/>
</svg>
