<svg width="22" height="22" viewBox="0 0 22 22" fill="none" xmlns="http://www.w3.org/2000/svg">
<path d="M1 20.6025L5.15681 19.6737C7.00574 19.2585 7.62205 17.3352 6.27141 16.2097C4.92078 15.0842 2.6129 15.5978 2.1146 17.1385L1 20.6025Z" stroke="#444443" stroke-linecap="round" stroke-linejoin="round"/>
<path d="M11.8646 10.1479L9.60938 12.4032" stroke="#444443" stroke-linecap="round" stroke-linejoin="round"/>
<path d="M16.1915 7.52464C17.1392 7.52464 17.9075 6.75639 17.9075 5.80871C17.9075 4.86102 17.1392 4.09277 16.1915 4.09277C15.2438 4.09277 14.4756 4.86102 14.4756 5.80871C14.4756 6.75639 15.2438 7.52464 16.1915 7.52464Z" stroke="#444443" stroke-linecap="round" stroke-linejoin="round"/>
<path d="M9.25423 12.7461L11.4727 14.9523L12.1958 20.5536L16.9514 15.7735C17.5888 15.1362 17.8952 14.2537 17.8094 13.359L17.552 10.7851L18.839 9.48585C21.0084 7.30416 21.229 5.03668 20.849 1.89897C20.8245 1.70286 20.7387 1.53127 20.6162 1.38419C20.4813 1.26162 20.2975 1.17582 20.1014 1.15131C16.9637 0.771353 14.6962 0.991973 12.5145 3.16141L11.2153 4.46061L8.6414 4.20322C7.74666 4.11743 6.86418 4.4361 6.22683 5.06119L1.45898 9.81678L7.06029 10.5399L9.26649 12.7584L9.25423 12.7461Z" stroke="#444443" stroke-linecap="round" stroke-linejoin="round"/>
</svg>
