<svg width="61" height="61" viewBox="0 0 61 61" fill="none" xmlns="http://www.w3.org/2000/svg">
<path d="M49.7995 10.4341H42.8043C42.381 10.4341 42.0379 10.7772 42.0379 11.2005V49.7993C42.0379 50.2225 42.381 50.5657 42.8043 50.5657H49.7995C50.2227 50.5657 50.5659 50.2225 50.5659 49.7993V11.2005C50.5659 10.7772 50.2227 10.4341 49.7995 10.4341Z" stroke="#444443" stroke-width="1.5" stroke-linecap="round" stroke-linejoin="round"/>
<path d="M33.9974 30.5H27.0023C26.579 30.5 26.2359 30.8431 26.2359 31.2664V49.7994C26.2359 50.2227 26.579 50.5658 27.0023 50.5658H33.9974C34.4207 50.5658 34.7638 50.2227 34.7638 49.7994V31.2664C34.7638 30.8431 34.4207 30.5 33.9974 30.5Z" stroke="#444443" stroke-width="1.5" stroke-linecap="round" stroke-linejoin="round"/>
<path d="M18.1958 40.5327H11.2006C10.7773 40.5327 10.4342 40.8758 10.4342 41.2991V49.7992C10.4342 50.2225 10.7773 50.5656 11.2006 50.5656H18.1958C18.619 50.5656 18.9622 50.2225 18.9622 49.7992V41.2991C18.9622 40.8758 18.619 40.5327 18.1958 40.5327Z" stroke="#444443" stroke-width="1.5" stroke-linecap="round" stroke-linejoin="round"/>
<path d="M21.2893 10.4341L30.4444 10.4898L30.5001 19.6309" stroke="#444443" stroke-width="1.5" stroke-linecap="round" stroke-linejoin="round"/>
<path d="M30.2352 10.6431L10.4342 30.4441" stroke="#444443" stroke-width="1.5" stroke-linecap="round" stroke-linejoin="round"/>
</svg>
