<svg width="61" height="61" viewBox="0 0 61 61" fill="none" xmlns="http://www.w3.org/2000/svg">
<path d="M51.2651 38.2632V15.3158C51.2651 12.9322 49.3641 11 47.019 11L14.0852 11C11.7401 11 9.839 12.9322 9.839 15.3158V38.2632C9.839 40.6467 11.7401 42.5789 14.0852 42.5789H47.019C49.3641 42.5789 51.2651 40.6467 51.2651 38.2632Z" stroke="#444443" stroke-width="1.5" stroke-linecap="round" stroke-linejoin="round"/>
<path d="M30.552 43.1836V53.1046" stroke="#444443" stroke-width="1.5" stroke-linecap="round" stroke-linejoin="round"/>
<path d="M22.7847 53.1055H38.3195" stroke="#444443" stroke-width="1.5" stroke-linecap="round" stroke-linejoin="round"/>
<path d="M15.917 30.7321C15.8429 30.4817 15.917 30.3175 16.1394 30.2381C18.6312 29.3747 20.5557 28.3593 21.9128 27.1894L15.917 30.7321ZM15.917 30.7321C15.949 30.8348 16.0129 30.9087 16.1074 30.9538L15.917 30.7321ZM19.384 20.6356L19.384 20.6356C20.226 23.1028 21.2944 24.9975 22.5848 26.3267C22.5874 26.3284 22.5896 26.3297 22.5914 26.3306C24.0333 24.8157 25.2217 22.5568 26.1477 19.5395H16.0921C15.9519 19.5395 15.8312 19.4832 15.7358 19.3811C15.6406 19.2791 15.5919 19.1549 15.5919 19.0146C15.5919 18.8745 15.6403 18.7496 15.7323 18.6438C15.8264 18.5356 15.948 18.4732 16.0921 18.4732H22.0823V16.4256C22.0823 16.2664 22.1343 16.124 22.2449 16.0131C22.3507 15.9071 22.4816 15.85 22.6297 15.85C22.7778 15.85 22.9086 15.9071 23.0144 16.0131C23.1251 16.124 23.1771 16.2664 23.1771 16.4256V18.4718H29.166C29.3101 18.4718 29.4317 18.5342 29.5258 18.6425C29.6177 18.7482 29.6661 18.8732 29.6661 19.0132C29.6661 19.1535 29.6174 19.2778 29.5223 19.3797C29.4269 19.4818 29.3062 19.5381 29.166 19.5381H27.3208C27.313 19.5381 27.3091 19.5392 27.3077 19.5396C27.3066 19.54 27.3063 19.5402 27.306 19.5405C27.3052 19.5411 27.2972 19.5477 27.2882 19.572C26.3004 22.8795 25.0073 25.3853 23.3996 27.0775C24.7899 28.2454 26.7038 29.2535 29.151 30.0963L29.1525 30.0969C29.2865 30.1447 29.3875 30.2368 29.4513 30.3675C29.4514 30.3677 29.4515 30.368 29.4517 30.3682L29.3168 30.4338C29.3653 30.531 29.373 30.6295 29.3411 30.7321C29.267 30.9702 29.1136 31.0496 28.8798 30.9702C26.2397 30.0726 24.1874 28.9943 22.7242 27.734L19.384 20.6356ZM19.384 20.6356L19.3827 20.6318C19.3295 20.4887 19.2394 20.3758 19.1122 20.2995L19.1108 20.2987C18.9792 20.2217 18.8341 20.2034 18.6861 20.2512C18.5396 20.2984 18.4314 20.3958 18.3656 20.5329L18.3656 20.5329L18.3646 20.535C18.301 20.6733 18.2962 20.8164 18.3527 20.957C19.2456 23.5512 20.3961 25.5885 21.8092 27.0604C21.8097 27.0644 21.8101 27.0703 21.8101 27.0785C21.8101 27.079 21.8101 27.0794 21.8101 27.0799C20.4727 28.2313 18.569 29.2375 16.0902 30.0964L16.0889 30.0969C15.9518 30.1458 15.8388 30.2294 15.7802 30.3594C15.723 30.4864 15.7304 30.6302 15.7732 30.7747L15.7732 30.7747L15.7738 30.7767C15.818 30.9186 15.9099 31.0257 16.0428 31.0892L16.0435 31.0895C16.1731 31.1506 16.3084 31.1596 16.443 31.1119C19.0492 30.2236 21.1022 29.1387 22.5956 27.8513C22.6054 27.8442 22.6111 27.8424 22.6131 27.842C22.615 27.8424 22.6207 27.8442 22.6306 27.8513L19.384 20.6356ZM23.2801 27.1729L23.3697 27.0709M23.2801 27.1729L23.3893 27.0883M23.2801 27.1729L23.3679 27.0691M23.2801 27.1729L23.3765 27.0589L23.3686 27.0681M23.3697 27.0709L23.3822 27.0827M23.3697 27.0709L23.3706 27.0699L23.3686 27.0681M23.3697 27.0709L23.3679 27.0691M23.3822 27.0827C23.3822 27.0831 23.3822 27.0835 23.3822 27.0838C23.3822 27.0944 23.3794 27.1007 23.379 27.1014C23.379 27.1016 23.3812 27.0971 23.3893 27.0883M23.3822 27.0827L23.3887 27.089C23.3889 27.0887 23.3891 27.0885 23.3893 27.0883M23.3822 27.0827C23.3822 27.0821 23.3821 27.0814 23.3821 27.0807L23.3897 27.0878C23.3896 27.088 23.3895 27.0882 23.3893 27.0883M23.3679 27.0691L23.3686 27.0681M23.3679 27.0691L23.2801 26.9855L23.3686 27.0681" fill="#444443" stroke="#444443" stroke-width="0.3"/>
<mask id="path-5-outside-1_1192_23652" maskUnits="userSpaceOnUse" x="31.4678" y="21" width="13" height="16" fill="black">
<rect fill="white" x="31.4678" y="21" width="13" height="16"/>
<path d="M33.4762 35.5195L34.7857 31.7228C34.8231 31.6208 34.8932 31.5698 34.9942 31.5698H40.7258C40.8398 31.5698 40.9163 31.6208 40.9538 31.7228L42.2633 35.5195C42.3138 35.661 42.4018 35.7762 42.5288 35.8651C42.6559 35.9539 42.7943 36 42.9458 36C43.0728 36 43.1673 35.949 43.2308 35.847C43.2943 35.7449 43.3074 35.6363 43.2683 35.5211L38.6393 22.5365C38.5888 22.3703 38.4944 22.2386 38.3543 22.1432C38.2142 22.0477 38.0562 22 37.8803 22C37.7044 22 37.5481 22.0477 37.4161 22.1432C37.2826 22.2386 37.1849 22.3703 37.1213 22.5365L32.4891 35.5195C32.4517 35.6347 32.4631 35.7433 32.5266 35.8453C32.5901 35.9473 32.6846 35.9984 32.8116 35.9984C33.1537 35.9984 33.3752 35.8387 33.4762 35.5195ZM37.8608 22.8442C37.8852 22.8442 37.8983 22.8508 37.8983 22.864L40.5548 30.612C40.5792 30.714 40.5482 30.765 40.4603 30.765H35.2792C35.2417 30.765 35.2092 30.7486 35.1847 30.7173C35.1587 30.686 35.1538 30.6498 35.1652 30.612L37.8412 22.8623C37.8412 22.8492 37.8478 22.8426 37.8608 22.8426"/>
</mask>
<path d="M33.4762 35.5195L34.7857 31.7228C34.8231 31.6208 34.8932 31.5698 34.9942 31.5698H40.7258C40.8398 31.5698 40.9163 31.6208 40.9538 31.7228L42.2633 35.5195C42.3138 35.661 42.4018 35.7762 42.5288 35.8651C42.6559 35.9539 42.7943 36 42.9458 36C43.0728 36 43.1673 35.949 43.2308 35.847C43.2943 35.7449 43.3074 35.6363 43.2683 35.5211L38.6393 22.5365C38.5888 22.3703 38.4944 22.2386 38.3543 22.1432C38.2142 22.0477 38.0562 22 37.8803 22C37.7044 22 37.5481 22.0477 37.4161 22.1432C37.2826 22.2386 37.1849 22.3703 37.1213 22.5365L32.4891 35.5195C32.4517 35.6347 32.4631 35.7433 32.5266 35.8453C32.5901 35.9473 32.6846 35.9984 32.8116 35.9984C33.1537 35.9984 33.3752 35.8387 33.4762 35.5195ZM37.8608 22.8442C37.8852 22.8442 37.8983 22.8508 37.8983 22.864L40.5548 30.612C40.5792 30.714 40.5482 30.765 40.4603 30.765H35.2792C35.2417 30.765 35.2092 30.7486 35.1847 30.7173C35.1587 30.686 35.1538 30.6498 35.1652 30.612L37.8412 22.8623C37.8412 22.8492 37.8478 22.8426 37.8608 22.8426" fill="#444443"/>
<path d="M33.4762 35.5195L33.1925 35.4216L33.1901 35.429L33.4762 35.5195ZM34.7857 31.7228L34.504 31.6194L34.5021 31.625L34.7857 31.7228ZM40.9538 31.7228L41.2375 31.625L41.2354 31.6194L40.9538 31.7228ZM42.2633 35.5195L41.9797 35.6173L41.9808 35.6203L42.2633 35.5195ZM43.2683 35.5211L43.5524 35.4247L43.5509 35.4204L43.2683 35.5211ZM38.6393 22.5365L38.3523 22.6237L38.3544 22.6305L38.3568 22.6372L38.6393 22.5365ZM37.4161 22.1432L37.5906 22.3873L37.592 22.3862L37.4161 22.1432ZM37.1213 22.5365L36.841 22.4294L36.8388 22.4357L37.1213 22.5365ZM32.4891 35.5195L32.2065 35.4186L32.2038 35.4267L32.4891 35.5195ZM37.8983 22.864H37.5983V22.914L37.6145 22.9613L37.8983 22.864ZM40.5548 30.612L40.8465 30.5421L40.8432 30.5282L40.8385 30.5147L40.5548 30.612ZM35.1847 30.7173L35.4212 30.5325L35.4152 30.5252L35.1847 30.7173ZM35.1652 30.612L34.8814 30.514L34.8779 30.5254L35.1652 30.612ZM37.8412 22.8623L38.1248 22.9603L38.1412 22.9127V22.8623H37.8412ZM33.7598 35.6173L35.0693 31.8206L34.5021 31.625L33.1926 35.4216L33.7598 35.6173ZM35.0673 31.8262C35.0708 31.8167 35.067 31.8327 35.0434 31.85C35.0322 31.8582 35.0205 31.8637 35.0101 31.8668C35.0002 31.8698 34.9942 31.8698 34.9942 31.8698V31.2698C34.8913 31.2698 34.7835 31.2966 34.6888 31.366C34.5956 31.4343 34.538 31.5269 34.5041 31.6194L35.0673 31.8262ZM34.9942 31.8698H40.7258V31.2698H34.9942V31.8698ZM40.7258 31.8698C40.738 31.8698 40.7238 31.8722 40.7015 31.8573C40.6911 31.8503 40.6831 31.8421 40.6777 31.8349C40.6726 31.828 40.6714 31.8241 40.6722 31.8262L41.2354 31.6194C41.1989 31.5199 41.1352 31.4256 41.0355 31.3588C40.9371 31.2929 40.8276 31.2698 40.7258 31.2698V31.8698ZM40.6702 31.8206L41.9797 35.6173L42.5469 35.4216L41.2374 31.625L40.6702 31.8206ZM41.9808 35.6203C42.0526 35.8215 42.1798 35.987 42.3569 36.1109L42.7008 35.6192C42.6238 35.5654 42.5751 35.5004 42.5459 35.4187L41.9808 35.6203ZM42.3569 36.1109C42.5309 36.2326 42.7287 36.3 42.9458 36.3V35.7C42.8599 35.7 42.7809 35.6752 42.7008 35.6192L42.3569 36.1109ZM42.9458 36.3C43.1701 36.3 43.364 36.2007 43.4855 36.0055L42.9761 35.6884C42.972 35.695 42.9693 35.6978 42.9687 35.6983C42.9683 35.6987 42.9689 35.6981 42.97 35.6975C42.9711 35.6969 42.9708 35.6974 42.9677 35.6981C42.9644 35.6988 42.9575 35.7 42.9458 35.7V36.3ZM43.4855 36.0055C43.5963 35.8275 43.6205 35.6254 43.5524 35.4247L42.9842 35.6175C42.9943 35.6472 42.9924 35.6623 42.9761 35.6884L43.4855 36.0055ZM43.5509 35.4204L38.9219 22.4358L38.3568 22.6372L42.9857 35.6218L43.5509 35.4204ZM38.9264 22.4493C38.857 22.2208 38.7226 22.0311 38.5232 21.8953L38.1854 22.3911C38.2662 22.4462 38.3207 22.5197 38.3523 22.6237L38.9264 22.4493ZM38.5232 21.8953C38.3314 21.7645 38.1141 21.7 37.8803 21.7V22.3C37.9984 22.3 38.0971 22.3309 38.1854 22.3911L38.5232 21.8953ZM37.8803 21.7C37.6476 21.7 37.4283 21.7641 37.2403 21.9001L37.592 22.3862C37.6679 22.3313 37.7612 22.3 37.8803 22.3V21.7ZM37.2417 21.8991C37.055 22.0325 36.9233 22.2144 36.8411 22.4294L37.4016 22.6436C37.4464 22.5262 37.5101 22.4447 37.5906 22.3873L37.2417 21.8991ZM36.8388 22.4357L32.2066 35.4186L32.7717 35.6203L37.4039 22.6373L36.8388 22.4357ZM32.2038 35.4267C32.1403 35.6222 32.1595 35.8232 32.2719 36.0039L32.7813 35.6868C32.7667 35.6633 32.7631 35.6471 32.7744 35.6122L32.2038 35.4267ZM32.2719 36.0039C32.3935 36.1991 32.5873 36.2984 32.8116 36.2984V35.6984C32.7999 35.6984 32.793 35.6972 32.7897 35.6964C32.7866 35.6957 32.7863 35.6953 32.7874 35.6959C32.7885 35.6965 32.7891 35.6971 32.7887 35.6967C32.7881 35.6961 32.7854 35.6934 32.7813 35.6868L32.2719 36.0039ZM32.8116 36.2984C33.0295 36.2984 33.2362 36.247 33.4097 36.122C33.5837 35.9966 33.6967 35.8169 33.7622 35.6099L33.1901 35.429C33.1546 35.5413 33.1064 35.601 33.0589 35.6352C33.0109 35.6699 32.9358 35.6984 32.8116 35.6984V36.2984ZM37.8608 23.1442C37.8552 23.1442 37.8072 23.145 37.75 23.1152C37.7174 23.0982 37.6764 23.0683 37.6442 23.0188C37.611 22.9676 37.5983 22.9125 37.5983 22.864H38.1983C38.1983 22.8089 38.1838 22.748 38.1474 22.6919C38.1121 22.6375 38.0663 22.6035 38.0274 22.5832C37.9576 22.5468 37.8908 22.5442 37.8608 22.5442V23.1442ZM37.6145 22.9613L40.271 30.7093L40.8385 30.5147L38.182 22.7667L37.6145 22.9613ZM40.263 30.6818C40.2649 30.6896 40.2622 30.6828 40.263 30.6658C40.2637 30.648 40.2687 30.611 40.2941 30.5697C40.3558 30.4692 40.4527 30.465 40.4603 30.465V31.065C40.5559 31.065 40.7122 31.0353 40.8053 30.8838C40.8849 30.7542 40.8642 30.616 40.8465 30.5421L40.263 30.6818ZM40.4603 30.465H35.2792V31.065H40.4603V30.465ZM35.2792 30.465C35.3056 30.465 35.3346 30.4711 35.3624 30.4851C35.3897 30.4989 35.4089 30.517 35.4211 30.5326L34.9483 30.902C35.0257 31.001 35.1432 31.065 35.2792 31.065V30.465ZM35.4152 30.5252C35.434 30.5478 35.4501 30.579 35.4565 30.6161C35.4627 30.6517 35.4578 30.6807 35.4524 30.6985L34.8779 30.5254C34.8415 30.6463 34.8552 30.7904 34.9543 30.9094L35.4152 30.5252ZM35.4488 30.7099L38.1248 22.9603L37.5577 22.7644L34.8816 30.514L35.4488 30.7099ZM38.1412 22.8623C38.1412 22.9012 38.1315 22.9857 38.0594 23.0586C37.9866 23.1321 37.9013 23.1426 37.8608 23.1426V22.5426C37.8072 22.5426 37.7121 22.5564 37.6329 22.6365C37.5542 22.716 37.5412 22.8103 37.5412 22.8623H38.1412Z" fill="#444443" mask="url(#path-5-outside-1_1192_23652)"/>
</svg>
