<svg width="61" height="61" viewBox="0 0 61 61" fill="none" xmlns="http://www.w3.org/2000/svg">
<path d="M15.8169 18.9561H22.7083V34.3798H15.8169C15.2177 34.3798 14.6183 34.2656 14.0619 34.0373C13.5054 33.8091 13.0061 33.4666 12.578 33.0386C12.15 32.6105 11.8218 32.1112 11.5793 31.5547C11.351 30.9983 11.2368 30.399 11.2368 29.7997V23.5075C11.2368 22.2948 11.722 21.1391 12.5923 20.283C13.4484 19.4269 14.6041 18.9561 15.8169 18.9561Z" stroke="#444443" stroke-width="1.5" stroke-linecap="round" stroke-linejoin="round"/>
<path d="M22.8366 18.9416C22.8366 18.9416 34.5079 19.7406 39.2591 12.3926" stroke="#444443" stroke-width="1.5" stroke-linecap="round" stroke-linejoin="round"/>
<path d="M22.8366 34.3794C22.8366 34.3794 34.408 33.295 39.1878 40.6573" stroke="#444443" stroke-width="1.5" stroke-linecap="round" stroke-linejoin="round"/>
<path d="M44.8237 11.2368H40.9143C39.8584 11.2368 39.0166 12.0929 39.0166 13.1345V40.1723C39.0166 41.2282 39.8727 42.07 40.9143 42.07H44.8237C45.8795 42.07 46.7214 41.2139 46.7214 40.1723V13.1345C46.7214 12.0786 45.8653 11.2368 44.8237 11.2368Z" stroke="#444443" stroke-width="1.5" stroke-linecap="round" stroke-linejoin="round"/>
<path d="M17.0582 34.3795H21.5098C21.6667 34.3795 21.8237 34.408 21.9664 34.4794C22.1091 34.5365 22.2517 34.6221 22.3515 34.7362C22.4657 34.8503 22.5513 34.9788 22.6084 35.1214C22.6654 35.2641 22.7082 35.4211 22.7082 35.578V48.9186C22.7082 49.8318 22.3516 50.7021 21.6953 51.3584C21.0532 52.0005 20.1686 52.3715 19.2554 52.3715C18.3423 52.3715 17.4719 52.0148 16.8156 51.3584C16.1735 50.7164 15.8026 49.8318 15.8026 48.9186V35.578C15.8026 35.4211 15.8311 35.2499 15.9025 35.1072C15.9738 34.9645 16.0594 34.8218 16.1736 34.7077C16.2877 34.5935 16.4303 34.5079 16.573 34.4508C16.73 34.3938 16.8869 34.3652 17.0439 34.3652L17.0582 34.3795Z" stroke="#444443" stroke-width="1.5" stroke-linecap="round" stroke-linejoin="round"/>
<path d="M46.7216 22.323C47.0925 22.2231 47.492 22.166 47.8773 22.166C49.0758 22.166 50.2172 22.6369 51.059 23.4787C51.9008 24.3205 52.3717 25.4619 52.3717 26.6604C52.3717 27.859 51.9008 29.0004 51.059 29.8422C50.2172 30.684 49.0758 31.1549 47.8773 31.1549C47.492 31.1549 47.0925 31.112 46.7216 30.9979" stroke="#444443" stroke-width="1.5" stroke-linecap="round" stroke-linejoin="round"/>
</svg>
