<svg width="61" height="61" viewBox="0 0 61 61" fill="none" xmlns="http://www.w3.org/2000/svg">
<path d="M43.3421 32.5451C42.4818 38.6336 37.0889 43.342 30.563 43.342C23.4285 43.342 17.6579 37.7609 17.6579 30.8606C17.6579 24.4272 22.6941 19.1302 29.1571 18.4604" stroke="#444443" stroke-width="1.5" stroke-linecap="round" stroke-linejoin="round"/>
<path d="M50.5658 30.9012C50.5658 42.1955 41.5728 51.3683 30.4999 51.3683C19.427 51.3683 10.4342 42.1955 10.4342 30.9012C10.4342 19.6068 19.427 10.4341 30.4999 10.4341" stroke="#444443" stroke-width="1.5" stroke-linecap="round" stroke-linejoin="round"/>
<path d="M34.5132 33.6308C33.6806 35.1191 32.1703 36.1184 30.4471 36.1184C27.8139 36.1184 25.6842 33.7796 25.6842 30.888C25.6842 29.0382 26.5555 27.4223 27.8721 26.4868" stroke="#444443" stroke-width="1.5" stroke-linecap="round" stroke-linejoin="round"/>
<path fill-rule="evenodd" clip-rule="evenodd" d="M44.131 24.8815L37.0405 23.8568L36.1184 16.8688L42.5531 10.4341L44.9508 16.3155L50.5658 18.4467L44.131 24.8815Z" stroke="#444443" stroke-width="1.5" stroke-linecap="round" stroke-linejoin="round"/>
<path d="M40.9342 20.0654L31.3026 29.697" stroke="#444443" stroke-width="1.5" stroke-linecap="round" stroke-linejoin="round"/>
</svg>
